<svg xmlns="http://www.w3.org/2000/svg" xmlns:xlink="http://www.w3.org/1999/xlink" viewBox="0 0 561.2 123.25"><defs><style>.cls-1{fill:#d1d3d4;}.cls-2{clip-path:url(#clip-path);}.cls-3{fill:#939598;}.cls-4{fill:#bcbec0;}.cls-5{fill:#6d6e71;}.cls-6{clip-path:url(#clip-path-2);}.cls-12,.cls-13,.cls-7,.cls-8{fill:none;}.cls-7{stroke:#939598;stroke-width:2px;}.cls-8{stroke:#6f7173;stroke-width:0.5px;}.cls-11,.cls-9{fill:#004fa3;}.cls-10{fill:#dcddde;}.cls-11,.cls-12{stroke:#004fa3;}.cls-11,.cls-12,.cls-13{stroke-width:1.4px;}.cls-13{stroke:#1b449c;}.cls-14{fill:#fff;}</style><clipPath id="clip-path"><path class="cls-1" d="M4.49,83.38A30.78,30.78,0,1,0,35.26,52.61,30.77,30.77,0,0,0,4.49,83.38Zm21.22,0a9.56,9.56,0,1,1,9.55,9.55A9.56,9.56,0,0,1,25.71,83.38Z"/></clipPath><clipPath id="clip-path-2"><path class="cls-1" d="M54.86,38.84A30.77,30.77,0,1,0,85.63,8.07,30.76,30.76,0,0,0,54.86,38.84Zm21.21,0a9.56,9.56,0,1,1,9.56,9.56A9.55,9.55,0,0,1,76.07,38.84Z"/></clipPath></defs><title>Asset 1ibc-logo-reverse</title><g id="Layer_2" data-name="Layer 2"><g id="_3-IBC_text_CHROME" data-name="3-IBC text CHROME"><path class="cls-1" d="M4.49,83.38A30.78,30.78,0,1,0,35.26,52.61,30.77,30.77,0,0,0,4.49,83.38Zm21.22,0a9.56,9.56,0,1,1,9.55,9.55A9.56,9.56,0,0,1,25.71,83.38Z"/><g class="cls-2"><path class="cls-3" d="M66,84.77l-1.79-2.93v2.93H60.81a57,57,0,0,0-.37-6H58.93a44.34,44.34,0,0,1,.42,6c-.14,1.58,0-.42,0-.42H53.19a22.5,22.5,0,0,0-.62-5.83h-3.4s1.21,3.79.77,6.25H20.59s0,3.34,1.24,4.66h-3.3a26.06,26.06,0,0,1-1.19-4.66H11.17a29,29,0,0,0,1.16,6.14H10.72a32.13,32.13,0,0,1-1-6.14H6.31s.08,5.37,1.48,7.88-.07-.29-.07-.29H6.39S4.55,86.9,4.52,84.77c0,0,1.13,28.08,30.91,29.29C35.43,114.06,61.54,115.4,66,84.77Z"/></g><polygon class="cls-4" points="35.97 52.66 37.05 48.27 41.57 48.84 41.58 53.33 35.97 52.66"/><polygon class="cls-4" points="25.39 54.25 24.9 49.76 29.34 48.75 30.89 52.96 25.39 54.25"/><polygon class="cls-4" points="15.99 59.37 13.99 55.31 17.82 52.85 20.72 56.27 15.99 59.37"/><polygon class="cls-4" points="8.91 67.4 5.64 64.27 8.4 60.64 12.29 62.87 8.91 67.4"/><polygon class="cls-4" points="5 77.36 0.86 75.53 2.21 71.18 6.63 71.95 5 77.36"/><polygon class="cls-4" points="4.73 88.06 0.22 87.76 0 83.21 4.41 82.41 4.73 88.06"/><polygon class="cls-4" points="8.14 98.2 3.8 99.46 2.04 95.26 5.91 93.01 8.14 98.2"/><polygon class="cls-4" points="14.81 106.57 11.16 109.24 8.07 105.89 10.94 102.45 14.81 106.57"/><polygon class="cls-5" points="23.94 112.15 21.43 115.91 17.38 113.82 18.9 109.61 23.94 112.15"/><polygon class="cls-5" points="34.43 114.27 33.35 118.66 28.84 118.09 28.82 113.61 34.43 114.27"/><polygon class="cls-5" points="45.02 112.68 45.5 117.17 41.06 118.18 39.51 113.97 45.02 112.68"/><polygon class="cls-5" points="54.41 107.56 56.41 111.61 52.58 114.08 49.69 110.66 54.41 107.56"/><polygon class="cls-5" points="61.5 99.53 64.76 102.66 62 106.29 58.11 104.06 61.5 99.53"/><polygon class="cls-5" points="65.41 89.57 69.54 91.4 68.19 95.75 63.77 94.98 65.41 89.57"/><polygon class="cls-5" points="65.67 78.87 70.18 79.17 70.4 83.72 65.99 84.51 65.67 78.87"/><polygon class="cls-5" points="62.27 68.73 66.61 67.47 68.37 71.67 64.49 73.92 62.27 68.73"/><polygon class="cls-5" points="55.59 60.36 59.24 57.69 62.33 61.04 59.46 64.48 55.59 60.36"/><polygon class="cls-4" points="46.46 54.78 48.98 51.02 53.02 53.11 51.51 57.33 46.46 54.78"/><polygon class="cls-4" points="82.82 8.15 83.38 3.66 87.93 3.71 88.47 8.16 82.82 8.15"/><polygon class="cls-4" points="72.49 10.97 71.48 6.56 75.78 5.04 77.81 9.04 72.49 10.97"/><polygon class="cls-4" points="63.76 17.15 61.3 13.35 64.82 10.46 68.09 13.52 63.76 17.15"/><polygon class="cls-4" points="57.66 25.95 54.05 23.22 56.37 19.3 60.49 21.05 57.66 25.95"/><polygon class="cls-4" points="54.94 36.3 50.62 34.97 51.45 30.49 55.93 30.73 54.94 36.3"/><polygon class="cls-4" points="55.92 46.95 51.41 47.18 50.66 42.69 54.95 41.39 55.92 46.95"/><polygon class="cls-4" points="60.49 56.63 56.33 58.39 54.09 54.42 57.67 51.73 60.49 56.63"/><polygon class="cls-5" points="68.1 64.16 64.79 67.24 61.32 64.28 63.77 60.52 68.1 64.16"/><polygon class="cls-5" points="77.82 68.64 75.76 72.66 71.49 71.06 72.51 66.7 77.82 68.64"/><polygon class="cls-5" points="88.48 69.52 87.93 74.01 83.37 73.96 82.83 69.51 88.48 69.52"/><polygon class="cls-5" points="98.81 66.7 99.82 71.11 95.52 72.63 93.5 68.63 98.81 66.7"/><polygon class="cls-5" points="107.55 60.52 110 64.31 106.48 67.21 103.21 64.15 107.55 60.52"/><polygon class="cls-5" points="113.64 51.73 117.25 54.45 114.93 58.38 110.81 56.61 113.64 51.73"/><polygon class="cls-5" points="116.36 41.37 120.68 42.7 119.85 47.18 115.37 46.94 116.36 41.37"/><polygon class="cls-3" points="115.38 30.72 119.89 30.49 120.64 34.98 116.35 36.28 115.38 30.72"/><polygon class="cls-3" points="110.81 21.04 114.97 19.28 117.21 23.25 113.63 25.93 110.81 21.04"/><polygon class="cls-4" points="103.21 13.51 106.52 10.43 109.98 13.39 107.53 17.14 103.21 13.51"/><polygon class="cls-4" points="93.48 9.03 95.54 5.01 99.81 6.61 98.79 10.97 93.48 9.03"/><path class="cls-1" d="M54.86,38.84A30.77,30.77,0,1,0,85.63,8.07,30.76,30.76,0,0,0,54.86,38.84Zm21.21,0a9.56,9.56,0,1,1,9.56,9.56A9.55,9.55,0,0,1,76.07,38.84Z"/><g class="cls-6"><path class="cls-3" d="M116.37,40.23l-1.79-2.92v2.92h-3.4a57.82,57.82,0,0,0-.38-6h-1.51a45.64,45.64,0,0,1,.43,6c-.15,1.59,0-.42,0-.42h-6.19a22.83,22.83,0,0,0-.61-5.83h-3.4s1.2,3.8.76,6.25H71s0,3.35,1.24,4.67h-3.3a26,26,0,0,1-1.19-4.67H61.54a28.38,28.38,0,0,0,1.16,6.15H61.09a31.31,31.31,0,0,1-1-6.15H56.67s.08,5.37,1.48,7.88-.06-.29-.06-.29H56.76s-1.85-5.46-1.87-7.59c0,0,1.12,28.09,30.9,29.3C85.79,69.53,111.91,70.87,116.37,40.23Z"/></g><path class="cls-7" d="M85.65,8.06a30.78,30.78,0,1,0,30.77,30.77A30.77,30.77,0,0,0,85.65,8.06Zm0,40.33a9.56,9.56,0,1,1,9.56-9.56A9.55,9.55,0,0,1,85.65,48.39Z"/><path class="cls-8" d="M114.64,38.83a29,29,0,1,1-29-29A29,29,0,0,1,114.64,38.83Z"/><circle class="cls-8" cx="85.65" cy="38.83" r="25.59" transform="matrix(0.92, -0.38, 0.38, 0.92, -8.34, 35.73)"/><circle class="cls-8" cx="85.65" cy="38.83" r="24.13" transform="translate(-8.34 35.73) rotate(-22.5)"/><circle class="cls-8" cx="85.65" cy="38.83" r="17.98" transform="translate(26.52 111.96) rotate(-75.43)"/><circle class="cls-8" cx="85.65" cy="38.83" r="14.74" transform="translate(-8.31 34.9) rotate(-21.99)"/><path class="cls-7" d="M38.8,52.9a30.78,30.78,0,1,0,27,34.16A30.78,30.78,0,0,0,38.8,52.9ZM34.09,93a9.56,9.56,0,1,1,10.6-8.37A9.55,9.55,0,0,1,34.09,93Z"/><path class="cls-8" d="M64,86.85a29,29,0,1,1-25.4-32.18A29,29,0,0,1,64,86.85Z"/><path class="cls-8" d="M60.62,86.45a25.59,25.59,0,1,1-22.43-28.4A25.59,25.59,0,0,1,60.62,86.45Z"/><path class="cls-8" d="M59.17,86.28A24.13,24.13,0,1,1,38,59.5,24.13,24.13,0,0,1,59.17,86.28Z"/><path class="cls-8" d="M53.06,85.56a18,18,0,1,1-15.76-20A18,18,0,0,1,53.06,85.56Z"/><path class="cls-8" d="M49.84,85.19A14.74,14.74,0,1,1,36.92,68.83,14.73,14.73,0,0,1,49.84,85.19Z"/><path class="cls-9" d="M232.46,74.77h65.6c7.92,0,12.94,1.81,11.8,9.86-1,6.9-6.5,8.71-14.41,8.71H229.84Zm-43.25,47.17H305.75c20.94,0,37.2-5.42,40.88-31.55C349,73.64,343.54,63.81,328.72,62l.07-.49c10.63-3,18.6-7.89,21.48-27.28C353.43,12.91,339.75,3,311.32,3H206Zm49.34-90.39h64.78c6.76,0,10.37,2.46,9.4,9.37-1,6.73-5.26,9.2-12,9.2H235.93Z"/><polygon class="cls-4" points="142.69 2.95 179.29 2.95 169.73 10.48 148.64 10.48 142.69 2.95"/><polygon class="cls-10" points="142.69 2.95 148.64 10.48 133.92 114.84 125.92 121.94 142.69 2.95"/><polygon class="cls-3" points="179.29 2.95 162.51 121.94 155.23 114.84 169.73 10.48 179.29 2.95"/><polygon class="cls-5" points="125.92 121.94 133.92 114.84 155.23 114.84 162.51 121.94 125.92 121.94"/><polygon class="cls-11" points="155.24 114.84 133.93 114.84 148.65 10.49 169.74 10.49 155.24 114.84"/><path class="cls-5" d="M319.9,41.94c-2.25,17-19,16.5-19,16.5H226.65l9.28-8.32h66.73s9.64-.48,10.07-9.2Z"/><polygon class="cls-5" points="226.65 58.44 231.15 23.94 238.55 31.55 235.93 50.12 226.65 58.44"/><path class="cls-4" d="M231.15,23.94H303.4s18.25.5,16.5,18l-7.17-1s3-9.37-9.4-9.37H238.55Z"/><path class="cls-5" d="M317.38,85.21c-2.34,17-19.73,16.5-19.73,16.5H220.57l9.64-8.32h69.27s10-.48,10.45-9.2Z"/><polygon class="cls-5" points="220.57 101.71 225.24 67.21 232.92 74.82 230.21 93.39 220.57 101.71"/><path class="cls-4" d="M225.24,67.21h75s18.94.5,17.13,18l-7.45-1s3.16-9.37-9.75-9.37H232.92Z"/><polygon class="cls-10" points="205.99 2.95 211.9 10.94 197.4 114.94 189.21 121.94 205.99 2.95"/><path class="cls-4" d="M206,3H310.4s47.24-3.78,39.87,31.23l-8.37-.24s7.75-24.25-31.75-23.25H211.9Z"/><path class="cls-5" d="M341.9,33.94s1.25,18-20.5,22l-1.25,7,8.57-1.1s19.42-2.42,21.55-27.66Z"/><path class="cls-4" d="M320.15,62.94l8.57-1.1S353.62,63,346.51,91.2l-8.36-1.26s5-21.47-18.25-21.25Z"/><path class="cls-5" d="M338.15,89.94s1,24.75-33.25,24.75c-35.5,0-107.5.25-107.5.25l-8.19,7H304.65s38.72,4,41.86-30.74Z"/><path class="cls-12" d="M319.89,42.14c-2.25,17-19,16.5-19,16.5H226.64l4.5-34.5h72.25S321.64,24.64,319.89,42.14Z"/><path class="cls-13" d="M317.37,85.41c-1.78,17.07-19.73,16.5-19.73,16.5H220.56l4.67-34.5h75S319.18,67.91,317.37,85.41Z"/><path class="cls-12" d="M320.08,63l1.25-7c21.75-4,20.5-22,20.5-22s7.75-24.25-31.75-23.25h-98.2l0,.25-14.5,104s72-.25,107.5-.25c34.25,0,33.25-24.75,33.25-24.75s5-21.47-18.25-21.25l.25-5.75"/><path class="cls-4" d="M390,20.92s8.48-11.38,40.92-11.38h42.61s43.82,0,44.54,10.89l7.77-2.91S525,.52,474.2,1.64h-43S399.28-1.08,384.36,16Z"/><path class="cls-5" d="M518.08,20.43l1.21,18.89,7.1,7.18s3.84-20.76-.54-29Z"/><polygon class="cls-5" points="519.29 39.32 526.39 46.5 489.8 46.5 497.26 39.32 519.29 39.32"/><path class="cls-5" d="M489.8,46.5l7.46-7.18s1.45-14.53-22.75-14.53H434.08a40.45,40.45,0,0,0-25.42,9L414.85,39s5.67-6.74,19.23-6.75h40.59S494.68,30,489.8,46.5Z"/><path class="cls-10" d="M414.85,39s-3.26,4.07-4.3,7.77-4.8,23.94-4.56,33.2c0,0,.55,5.33,1.95,7.07l-6.79,4.85s-3.39-5.57-3.39-11.13,3.15-29.54,4.84-36.8c0,0,3.64-7.27,6.06-10.17Z"/><path class="cls-4" d="M407.94,87s1,5.68,16.34,5.68h39.06a97.78,97.78,0,0,0,10-.43c2.64-.45,12.08-.61,13.78-16l5.57,7.85s-1.45,15-18.15,16c0,0-6.3.73-11.38.73H423.42s-14,1.93-22.27-9Z"/><polygon class="cls-4" points="492.66 84.1 514.21 84.1 523.68 76.25 487.09 76.25 492.66 84.1"/><path class="cls-5" d="M514.21,84.1s1.94,32.2-41.88,32.2H414.22S378.39,118,375,99.6l-6.91,2.08s-.35,21.57,44.92,21.57h60s20.47.31,30.58-5.86S519.92,103.25,522,88l1.65-11.74Z"/><path class="cls-10" d="M375,99.6s-1-12.59-.24-18.16,6.3-42.37,7.27-45.51,3.14-10.17,8-15l-5.65-5a39,39,0,0,0-9.42,17.42C372.67,43.69,367.41,81,367.41,81s-1.38,11.64.68,20.7-.59-.14-.59-.14Z"/><path class="cls-11" d="M514.25,84.05s1.94,32.2-41.88,32.2H414.26S378.43,117.94,375,99.54c0,0-1-12.58-.24-18.15s6.3-42.37,7.26-45.52,3.15-10.16,8-15c0,0,8.48-11.38,40.92-11.38h42.61s43.82,0,44.54,10.9l1.21,18.88h-22s1.45-14.52-22.76-14.52H434.12a40.47,40.47,0,0,0-25.42,9c-2.93,2.4-6.06,10.17-6.06,10.17-1.69,7.27-4.84,31.23-4.84,36.8s3.39,11.14,3.39,11.14c8.23,10.89,22.27,9,22.27,9h39.71c5.08,0,11.37-.72,11.37-.72,16.71-1,18.16-16,18.16-16Z"/><path class="cls-14" d="M549.43,0A11.83,11.83,0,0,1,561.2,12a11.86,11.86,0,1,1-23.71,0A11.92,11.92,0,0,1,549.38,0Zm0,1.87A9.87,9.87,0,0,0,539.79,12a9.86,9.86,0,0,0,9.64,10.17c5.33.05,9.59-4.47,9.59-10.12s-4.26-10.17-9.59-10.17ZM547.14,19H545V5.59a23.86,23.86,0,0,1,3.78-.31,7,7,0,0,1,4.15,1,3.19,3.19,0,0,1,1.23,2.77,3.34,3.34,0,0,1-2.61,3.25v.1c1.17.22,2,1.28,2.24,3.25a10.92,10.92,0,0,0,.85,3.31h-2.24a10,10,0,0,1-.91-3.41,2.49,2.49,0,0,0-2.87-2.35h-1.49Zm0-7.41h1.54c1.76,0,3.25-.64,3.25-2.29,0-1.17-.85-2.34-3.25-2.34a11,11,0,0,0-1.54.1Z"/></g></g></svg>